<svg width="206" height="35" viewBox="0 0 206 35" fill="none" xmlns="http://www.w3.org/2000/svg">
<path d="M14.2161 1.90409C11.8801 6.09609 8.71214 11.8241 5.64014 17.3921V2.35209L0.744141 2.64009L1.64014 20.0801L3.91214 20.5281L0.808141 26.1601L4.32814 27.7921C8.68014 20.4641 14.9521 9.68009 18.9841 3.31209L14.2161 1.90409Z" fill="white"/>
<path d="M25.1779 9.39209C17.5619 9.77609 14.3619 16.3681 14.3619 21.2321C14.3619 23.0881 14.6179 24.7201 14.9059 25.7441C16.0579 26.4161 17.5619 27.0561 19.2579 27.7601C25.6579 26.7041 29.2739 20.2721 29.2739 14.4161C29.2739 13.7761 29.2419 13.1361 29.1459 12.5281L25.1779 9.39209ZM18.5539 24.9121C18.3939 24.0161 18.2979 23.2161 18.2979 22.5441C18.2979 18.7361 19.8659 13.7761 25.7219 12.7201C25.7859 13.3281 25.8179 13.8721 25.8179 14.1601C25.8179 18.2241 23.7699 24.1441 18.5539 24.9121Z" fill="white"/>
<path d="M44.4031 11.0881C43.8911 12.3361 43.3791 13.5841 42.8991 14.8961C40.5311 17.4241 37.7151 20.3041 34.7391 22.9921C35.9551 19.1521 37.2351 14.9921 38.2271 10.8321L34.2591 9.93609C32.9151 15.4401 31.3151 20.3361 29.8431 25.5521L33.3311 27.5681C36.0831 25.3921 38.7071 22.8961 40.9791 20.4641C40.3391 22.6081 39.7951 24.7841 39.4751 27.0561L43.3791 27.6961C44.6591 20.9121 46.5151 15.8881 48.0511 12.0801L44.4031 11.0881Z" fill="white"/>
<path d="M62.9426 10.3841C59.6466 12.9761 57.0226 14.9921 54.5906 17.4561C55.3586 15.3121 55.9026 13.2321 56.3506 11.1841L52.2546 10.3521C50.7826 16.8801 49.2786 21.3281 48.0946 25.5521L51.9346 26.5121C52.3186 25.1041 52.7346 23.6321 53.1506 21.9681C55.6146 19.5361 58.0466 17.4881 60.8626 15.2801C59.3906 19.0881 58.3346 22.8001 57.4706 27.0241L61.4386 27.6961C62.5586 21.7441 64.2226 17.0721 66.6226 12.4641L62.9426 10.3841Z" fill="white"/>
<path d="M79.1164 15.1521C77.1964 17.6801 73.0044 21.4241 70.5084 23.5041C70.6684 17.6801 74.2204 13.6481 80.6844 12.9441L79.6604 9.2641C70.2844 10.3521 66.5724 17.1041 66.5724 22.9601C66.5724 23.7921 66.6364 24.8801 66.7964 25.7761C68.1084 26.4481 68.9404 26.8001 69.6764 27.2481C71.3084 26.1601 74.1564 23.7601 75.9484 21.8721C74.7964 24.5921 73.8044 26.6721 72.8124 28.1441C71.5644 29.9041 70.3164 30.7681 68.3004 30.7681C67.2764 30.7681 65.9004 30.5761 64.3964 29.8081L64.0124 33.0081C65.5484 34.0321 67.3724 34.4161 69.0364 34.4161C72.0764 34.4161 74.9244 32.7841 76.5564 30.1601C79.7564 24.6241 81.4204 18.1281 82.0604 16.7201L79.1164 15.1521Z" fill="white"/>
<path d="M101.798 15.1521C99.5259 17.5201 95.9099 21.1681 93.4139 23.4401C93.5419 17.7121 97.1259 13.7121 103.238 12.8801L102.342 9.1361C94.5659 10.1921 89.4779 15.8881 89.4779 22.9601C89.4779 23.8561 89.5739 24.7841 89.7339 25.7441C90.8219 26.3521 91.5579 26.7041 92.5499 27.2161C94.0539 26.0641 96.8699 23.5681 98.7899 21.3601C97.9259 23.7921 97.5419 25.4241 97.2539 26.8961L100.902 27.6961C101.958 23.5361 103.142 20.0801 104.742 16.7201L101.798 15.1521Z" fill="white"/>
<path d="M120.38 10.3841C117.084 12.9761 114.46 14.9921 112.028 17.4561C112.796 15.3121 113.34 13.2321 113.788 11.1841L109.692 10.3521C108.22 16.8801 106.716 21.3281 105.532 25.5521L109.372 26.5121C109.756 25.1041 110.172 23.6321 110.588 21.9681C113.052 19.5361 115.484 17.4881 118.3 15.2801C116.828 19.0881 115.772 22.8001 114.908 27.0241L118.876 27.6961C119.996 21.7441 121.66 17.0721 124.06 12.4641L120.38 10.3841Z" fill="white"/>
<path d="M141.098 1.45609C139.082 7.0561 137.482 11.3121 136.234 15.0881C134.09 17.3601 130.602 20.8801 128.234 23.1841C128.33 17.2961 130.89 14.1281 135.658 12.9761L134.666 9.20009C127.37 10.8641 124.202 16.5601 124.202 22.4481C124.202 23.4721 124.298 24.4961 124.426 25.3601C125.578 25.9681 126.506 26.4481 127.85 27.0241C129.258 25.9681 132.746 22.3201 134.826 19.7921C134.218 22.0321 133.738 24.2721 133.354 26.7041L137.258 27.5041C138.314 19.5681 143.05 8.40009 145.226 2.70409L141.098 1.45609Z" fill="white"/>
<path d="M162.434 0.496094C156.93 0.496094 155.074 4.5281 153.858 8.49609C153.666 9.16809 153.442 9.8401 153.25 10.5121C152.386 10.4801 151.554 10.4161 150.818 10.3841L150.21 12.8481C150.754 12.9121 151.522 13.0081 152.45 13.0721C150.402 19.6321 148.386 26.1921 146.562 33.4241L150.37 34.1921C152.194 27.1521 154.338 20.6561 156.738 13.2321H157.122C158.562 13.2321 160.034 13.2001 161.538 13.0721L162.242 10.3201C160.418 10.4801 159.042 10.5761 157.57 10.6081L157.954 9.45609C159.074 5.96809 160.002 4.27209 162.786 4.27209C163.362 4.27209 164.514 4.46409 165.314 4.84809L166.274 1.48809C164.898 0.656094 163.554 0.496094 162.434 0.496094Z" fill="white"/>
<path d="M172.746 9.2641C170.378 11.7921 168.042 14.6081 166.122 17.3601C166.826 15.2801 167.306 13.1681 167.85 11.1841L163.754 10.2881C162.346 16.7841 160.778 21.5521 159.594 25.7761L163.434 26.7361C163.754 25.6801 164.106 24.6241 164.394 23.6001C166.25 21.0401 168.33 18.1281 170.314 15.6641C169.77 17.3921 169.29 19.1201 168.97 20.6561L172.65 21.3281C173.354 18.0641 174.41 14.7041 175.978 11.2801L172.746 9.2641Z" fill="white"/>
<path d="M179.517 21.0401C179.549 20.6881 179.613 20.3041 179.709 19.9201C181.021 20.1121 182.045 20.2081 182.941 20.2081C187.645 20.2081 190.237 17.4881 190.237 14.0641C190.237 13.1361 190.077 12.1761 189.789 11.2161L184.509 9.64809C178.557 11.3121 175.645 16.6881 175.357 21.6161C175.133 25.6161 176.893 27.4401 180.029 27.4401C181.341 27.4401 183.581 27.0561 186.205 25.2001L186.557 22.3841C182.365 24.4641 180.509 24.4961 179.453 24.5601C179.389 23.8561 179.325 23.0881 179.517 21.0401ZM186.109 12.2081C186.269 12.7521 186.365 13.2961 186.365 13.8081C186.365 16.1121 184.605 17.8721 182.141 17.8721C181.693 17.8721 181.213 17.8081 180.509 17.7121C181.501 15.6641 183.293 13.5521 186.109 12.2081Z" fill="white"/>
<path d="M194.736 21.0401C194.768 20.6881 194.832 20.3041 194.928 19.9201C196.24 20.1121 197.264 20.2081 198.16 20.2081C202.864 20.2081 205.456 17.4881 205.456 14.0641C205.456 13.1361 205.296 12.1761 205.008 11.2161L199.728 9.64809C193.776 11.3121 190.864 16.6881 190.576 21.6161C190.352 25.6161 192.112 27.4401 195.248 27.4401C196.56 27.4401 198.8 27.0561 201.424 25.2001L201.776 22.3841C197.584 24.4641 195.728 24.4961 194.672 24.5601C194.608 23.8561 194.544 23.0881 194.736 21.0401ZM201.328 12.2081C201.488 12.7521 201.584 13.2961 201.584 13.8081C201.584 16.1121 199.824 17.8721 197.36 17.8721C196.912 17.8721 196.432 17.8081 195.728 17.7121C196.72 15.6641 198.512 13.5521 201.328 12.2081Z" fill="white"/>
</svg>
