<svg width="124" height="34" viewBox="0 0 124 34" fill="none" xmlns="http://www.w3.org/2000/svg">
<g clip-path="url(#clip0)">
<path d="M98.3205 10.1044L102.909 6.72168H87.5508V27.0363H102.909V23.6536H91.9342V18.4524H101.296V15.071H91.9342V10.1044H98.3205Z" fill="white"/>
<path d="M75.9585 14.6402H70.6246V10.1044H79.1397L83.7286 6.72168H66.2412V27.0416H75.3872C80.5195 27.0416 83.4635 24.7167 83.4635 20.6607C83.4701 16.7769 80.8032 14.6402 75.9585 14.6402ZM75.195 23.6536H70.6246V18.0282H75.195C77.9785 18.0282 79.2736 18.9693 79.2736 20.8436C79.2736 22.7523 77.9017 23.6536 75.195 23.6536Z" fill="white"/>
<path d="M115.353 6.7229H106.99V27.0415H111.374V21.2888H115.35C120.687 21.2888 124 18.4827 124 13.9985C124 9.51441 120.693 6.7229 115.353 6.7229ZM115.259 17.8955H111.374V10.1042H115.259C118.067 10.1042 119.613 11.488 119.613 14.0012C119.613 16.5143 118.067 17.8955 115.259 17.8955Z" fill="white"/>
<path d="M58.7171 22.6371C57.5557 23.2668 56.254 23.5927 54.9328 23.5848C50.9815 23.5848 48.1131 20.7655 48.1131 16.8791C48.1131 12.9927 50.9815 10.1721 54.9328 10.1721C56.3628 10.1503 57.762 10.5875 58.9252 11.4194L62.0693 9.10235L61.8612 8.92076C60.0254 7.30762 57.5732 6.45532 54.7685 6.45532C51.7198 6.45532 48.9667 7.48126 46.9957 9.34359C45.0247 11.206 43.9219 13.8503 43.9219 16.7664C43.9219 19.6825 45.0088 22.368 46.9851 24.2993C48.9614 26.2305 51.7158 27.3068 54.7353 27.3068C57.8953 27.3068 60.655 26.2053 62.5253 24.2012L59.6887 22.1095L58.7171 22.6371Z" fill="white"/>
<path d="M30.2372 6.55859C31.039 7.59527 31.7178 8.72154 32.2599 9.91477L16.884 21.2491L10.458 17.2209V12.3749L16.884 16.4031L30.2372 6.55859Z" fill="white"/>
<path d="M3.89963 16.879C3.89963 16.6616 3.90493 16.4456 3.91554 16.2309L0.0212092 16.04C0.00795416 16.3183 4.70615e-06 16.5993 4.70615e-06 16.883C-0.00165223 19.099 0.434236 21.2935 1.28267 23.3407C2.1311 25.3879 3.37538 27.2474 4.94413 28.8125L7.70647 26.0515C6.49891 24.8488 5.54095 23.4193 4.88764 21.8452C4.23433 20.2711 3.89856 18.5833 3.89963 16.879Z" fill="white"/>
<path d="M16.8805 3.89845C17.0979 3.89845 17.3139 3.90641 17.5287 3.91701L17.7235 0.0213591C17.4443 0.00810407 17.1633 0.00147736 16.8805 0.00147736C14.6635 -0.00122635 12.4677 0.434032 10.4194 1.28226C8.37102 2.13049 6.5104 3.37498 4.94434 4.94428L7.70668 7.70662C8.90943 6.49866 10.3391 5.54036 11.9135 4.88682C13.4878 4.23327 15.1759 3.89738 16.8805 3.89845Z" fill="white"/>
<path d="M16.8805 29.8595C16.6631 29.8595 16.447 29.8595 16.231 29.8423L16.0361 33.7366C16.3163 33.7508 16.5977 33.7578 16.8805 33.7578C19.0966 33.7602 21.2913 33.3246 23.3386 32.4761C25.3858 31.6276 27.2452 30.383 28.81 28.8137L26.053 26.0527C24.8501 27.26 23.4206 28.2178 21.8465 28.8711C20.2724 29.5244 18.5847 29.8603 16.8805 29.8595Z" fill="white"/>
<path d="M24.1971 6.16361L27.479 3.74457C24.4793 1.31553 20.7348 -0.00674274 16.875 2.58572e-05V3.89833C19.4887 3.89508 22.0418 4.68497 24.1971 6.16361Z" fill="white"/>
<path d="M33.7603 16.879C33.7625 15.8648 33.6737 14.8525 33.4952 13.8542L29.862 16.5317C29.862 16.647 29.862 16.7623 29.862 16.879C29.863 18.6926 29.4828 20.4863 28.7462 22.1436C28.0095 23.8009 26.9329 25.2849 25.5859 26.4995L28.2065 29.3957C29.9575 27.815 31.3568 25.8839 32.3136 23.7276C33.2704 21.5713 33.7633 19.238 33.7603 16.879Z" fill="white"/>
<path d="M16.88 29.8595C15.0662 29.8602 13.2725 29.4799 11.615 28.7433C9.9575 28.0067 8.47319 26.9302 7.25818 25.5835L4.36328 28.2027C5.94389 29.954 7.87495 31.3535 10.0312 32.3105C12.1875 33.2675 14.5209 33.7606 16.88 33.7578V29.8595Z" fill="white"/>
<path d="M8.17571 7.25829L5.55652 4.36206C3.80496 5.94255 2.40517 7.87356 1.44793 10.0299C0.490694 12.1862 -0.00260975 14.5196 1.03829e-05 16.8788H3.89964C3.89884 15.0652 4.27907 13.2716 5.0157 11.6143C5.75232 9.95699 6.82891 8.47294 8.17571 7.25829Z" fill="white"/>
</g>
<defs>
<clipPath id="clip0">
<rect width="124" height="34" fill="white"/>
</clipPath>
</defs>
</svg>
