<svg width="161" height="27" viewBox="0 0 161 27" fill="none" xmlns="http://www.w3.org/2000/svg">
<path d="M11.4498 1.17495C9.62481 4.44995 7.14981 8.92495 4.7498 13.275V1.52495L0.924805 1.74995L1.6248 15.375L3.3998 15.725L0.974805 20.125L3.7248 21.4C7.1248 15.675 12.0248 7.24995 15.1748 2.27495L11.4498 1.17495Z" fill="black"/>
<path d="M20.0137 7.02495C14.0637 7.32495 11.5637 12.475 11.5637 16.275C11.5637 17.725 11.7637 19 11.9887 19.8C12.8887 20.325 14.0637 20.825 15.3887 21.375C20.3887 20.55 23.2137 15.525 23.2137 10.95C23.2137 10.45 23.1887 9.94995 23.1137 9.47495L20.0137 7.02495ZM14.8387 19.15C14.7137 18.45 14.6387 17.825 14.6387 17.3C14.6387 14.325 15.8637 10.45 20.4387 9.62495C20.4887 10.1 20.5137 10.525 20.5137 10.75C20.5137 13.925 18.9137 18.55 14.8387 19.15Z" fill="black"/>
<path d="M35.0334 8.34995C34.6334 9.32495 34.2334 10.3 33.8584 11.325C32.0084 13.3 29.8084 15.55 27.4834 17.65C28.4334 14.65 29.4334 11.4 30.2084 8.14995L27.1084 7.44995C26.0584 11.75 24.8084 15.575 23.6584 19.65L26.3834 21.225C28.5334 19.525 30.5834 17.575 32.3584 15.675C31.8584 17.35 31.4334 19.05 31.1834 20.825L34.2334 21.325C35.2334 16.025 36.6834 12.1 37.8834 9.12495L35.0334 8.34995Z" fill="black"/>
<path d="M49.5174 7.79995C46.9424 9.82495 44.8924 11.4 42.9924 13.325C43.5924 11.65 44.0174 10.025 44.3674 8.42495L41.1674 7.77495C40.0174 12.875 38.8424 16.35 37.9174 19.65L40.9174 20.4C41.2174 19.3 41.5424 18.15 41.8674 16.85C43.7924 14.95 45.6924 13.35 47.8924 11.625C46.7424 14.6 45.9174 17.5 45.2424 20.8L48.3424 21.325C49.2174 16.675 50.5174 13.025 52.3924 9.42495L49.5174 7.79995Z" fill="black"/>
<path d="M62.1531 11.525C60.6531 13.5 57.3781 16.425 55.4281 18.05C55.5531 13.5 58.3281 10.35 63.3781 9.79995L62.5781 6.92495C55.2531 7.77495 52.3531 13.05 52.3531 17.625C52.3531 18.275 52.4031 19.125 52.5281 19.825C53.5531 20.35 54.2031 20.625 54.7781 20.975C56.0531 20.125 58.2781 18.25 59.6781 16.775C58.7781 18.9 58.0031 20.525 57.2281 21.675C56.2531 23.05 55.2781 23.725 53.7031 23.725C52.9031 23.725 51.8281 23.575 50.6531 22.975L50.3531 25.475C51.5531 26.275 52.9781 26.575 54.2781 26.575C56.6531 26.575 58.8781 25.3 60.1531 23.25C62.6531 18.925 63.9531 13.85 64.4531 12.75L62.1531 11.525Z" fill="black"/>
<path d="M79.873 11.525C78.098 13.375 75.273 16.225 73.323 18C73.423 13.525 76.223 10.4 80.998 9.74995L80.298 6.82495C74.223 7.64995 70.248 12.1 70.248 17.625C70.248 18.325 70.323 19.05 70.448 19.8C71.298 20.275 71.873 20.55 72.648 20.95C73.823 20.05 76.023 18.1 77.523 16.375C76.848 18.275 76.548 19.55 76.323 20.7L79.173 21.325C79.998 18.075 80.923 15.375 82.173 12.75L79.873 11.525Z" fill="black"/>
<path d="M94.3904 7.79995C91.8154 9.82495 89.7654 11.4 87.8654 13.325C88.4654 11.65 88.8904 10.025 89.2404 8.42495L86.0404 7.77495C84.8904 12.875 83.7154 16.35 82.7904 19.65L85.7904 20.4C86.0904 19.3 86.4154 18.15 86.7404 16.85C88.6654 14.95 90.5654 13.35 92.7654 11.625C91.6154 14.6 90.7904 17.5 90.1154 20.8L93.2154 21.325C94.0904 16.675 95.3904 13.025 97.2654 9.42495L94.3904 7.79995Z" fill="black"/>
<path d="M110.576 0.824952C109.001 5.19995 107.751 8.52495 106.776 11.475C105.101 13.25 102.376 16 100.526 17.8C100.601 13.2 102.601 10.725 106.326 9.82495L105.551 6.87495C99.8512 8.17495 97.3762 12.625 97.3762 17.225C97.3762 18.025 97.4512 18.825 97.5512 19.5C98.4512 19.975 99.1762 20.35 100.226 20.8C101.326 19.975 104.051 17.125 105.676 15.15C105.201 16.9 104.826 18.65 104.526 20.55L107.576 21.175C108.401 14.975 112.101 6.24995 113.801 1.79995L110.576 0.824952Z" fill="black"/>
<path d="M127.245 0.0749512C122.945 0.0749512 121.495 3.22495 120.545 6.32495C120.395 6.84995 120.22 7.37495 120.07 7.89995C119.395 7.87495 118.745 7.82495 118.17 7.79995L117.695 9.72495C118.12 9.77495 118.72 9.84995 119.445 9.89995C117.845 15.025 116.27 20.15 114.845 25.8L117.82 26.4C119.245 20.9 120.92 15.825 122.795 10.025H123.095C124.22 10.025 125.37 9.99995 126.545 9.89995L127.095 7.74995C125.67 7.87495 124.595 7.94995 123.445 7.97495L123.745 7.07495C124.62 4.34995 125.345 3.02495 127.52 3.02495C127.97 3.02495 128.87 3.17495 129.495 3.47495L130.245 0.849952C129.17 0.199951 128.12 0.0749512 127.245 0.0749512Z" fill="black"/>
<path d="M135.301 6.92495C133.451 8.89995 131.626 11.1 130.126 13.25C130.676 11.625 131.051 9.97495 131.476 8.42495L128.276 7.72495C127.176 12.8 125.951 16.525 125.026 19.825L128.026 20.575C128.276 19.75 128.551 18.925 128.776 18.125C130.226 16.125 131.851 13.85 133.401 11.925C132.976 13.275 132.601 14.625 132.351 15.825L135.226 16.35C135.776 13.8 136.601 11.175 137.826 8.49995L135.301 6.92495Z" fill="black"/>
<path d="M140.591 16.125C140.616 15.85 140.666 15.55 140.741 15.25C141.766 15.4 142.566 15.475 143.266 15.475C146.941 15.475 148.966 13.35 148.966 10.675C148.966 9.94995 148.841 9.19995 148.616 8.44995L144.491 7.22495C139.841 8.52495 137.566 12.725 137.341 16.575C137.166 19.7 138.541 21.125 140.991 21.125C142.016 21.125 143.766 20.825 145.816 19.375L146.091 17.175C142.816 18.8 141.366 18.825 140.541 18.875C140.491 18.325 140.441 17.725 140.591 16.125ZM145.741 9.22495C145.866 9.64995 145.941 10.075 145.941 10.475C145.941 12.275 144.566 13.65 142.641 13.65C142.291 13.65 141.916 13.6 141.366 13.525C142.141 11.925 143.541 10.275 145.741 9.22495Z" fill="black"/>
<path d="M152.481 16.125C152.506 15.85 152.556 15.55 152.631 15.25C153.656 15.4 154.456 15.475 155.156 15.475C158.831 15.475 160.856 13.35 160.856 10.675C160.856 9.94995 160.731 9.19995 160.506 8.44995L156.381 7.22495C151.731 8.52495 149.456 12.725 149.231 16.575C149.056 19.7 150.431 21.125 152.881 21.125C153.906 21.125 155.656 20.825 157.706 19.375L157.981 17.175C154.706 18.8 153.256 18.825 152.431 18.875C152.381 18.325 152.331 17.725 152.481 16.125ZM157.631 9.22495C157.756 9.64995 157.831 10.075 157.831 10.475C157.831 12.275 156.456 13.65 154.531 13.65C154.181 13.65 153.806 13.6 153.256 13.525C154.031 11.925 155.431 10.275 157.631 9.22495Z" fill="black"/>
</svg>
